{"title":"Paranormal.Asylum.2013.HDRip.x264.AC3.UNiQUE","uid":8929160,"size":1501837872,"categoryP":"video","categoryS":"movies","magnet":"?xt=urn:btih:8260a7e9c64c941f477248dc85f3b830a167f2f5&amp;dn=Paranormal.Asylum.2013.HDRip.x264.AC3.UNiQUE&amp;tr=udp%3A%2F%2Ftracker.openbittorrent.com%3A80&amp;tr=udp%3A%2F%2Fopen.demonii.com%3A1337&amp;tr=udp%3A%2F%2Ftracker.coppersurfer.tk%3A6969&amp;tr=udp%3A%2F%2Fexodus.desync.com%3A6969","seeders":1,"leechers":1,"uploader":"xxxlavalxxx","files":-1,"time":1379434455,"description":" &lt;a href=&quot;\nhttp://www.imdb.com/title/tt2748088/&quot; rel=&quot;nofollow&quot; target=&quot;_NEW&quot;&gt;\nhttp://www.imdb.com/title/tt2748088/&lt;/a&gt;\n\n\n\n\nDirector:\n Nimrod Zalmanowitz \n\nWriters:\n Fred Edison, Gregory Scott Houghton \n\nStars:\n Paul Bright, Laura Gilreath, Aaron Mathias\n\nGenres:\n  Horror \n\nCountry:\n USA \n\nLanguage:\n English \n\n\n\nGeneral:\n\n Format                                   : Matroska\n Format version                           : Version 2\n File size                                : 1.40 GiB\n Duration                                 : 1h 28mn\n Overall bit rate mode                    : Variable\n Overall bit rate                         : 2 271 Kbps\n Encoded date                             : UTC 2013-09-17 12:33:06\n Writing application                      : mkvmerge v6.4.1 ('Omega Point') built on Sep 16 2013 22:05:10\n Writing library                          : libebml v1.3.0 + libmatroska v1.4.1\n\n Video:\n\n ID                                       : 1\n Format                                   : AVC\n Format/Info                              : Advanced Video Codec\n Format profile                           : &lt;a class=&quot;__cf_email__&quot; href=&quot;/cdn-cgi/l/email-protection&quot; data-cfemail=&quot;8ac2e3ede2cac6bea4bb&quot;&gt;[email&amp;#160;protected]&lt;/a&gt;&lt;script cf-hash='f9e31' type=&quot;text/javascript&quot;&gt;\n/* &lt;![CDATA[ */!function(){try{var t=&quot;currentScript&quot;in document?document.currentScript:function(){for(var t=document.getElementsByTagName(&quot;script&quot;),e=t.length;e--;)if(t[e].getAttribute(&quot;cf-hash&quot;))return t[e]}();if(t&amp;&amp;t.previousSibling){var e,r,n,i,c=t.previousSibling,a=c.getAttribute(&quot;data-cfemail&quot;);if(a){for(e=&quot;&quot;,r=parseInt(a.substr(0,2),16),n=2;a.length-n;n+=2)i=parseInt(a.substr(n,2),16)^r,e+=String.fromCharCode(i);e=document.createTextNode(e),c.parentNode.replaceChild(e,c)}}}catch(u){}}();/* ]]&gt; */&lt;/script&gt;\n Format settings, CABAC                   : Yes\n Format settings, ReFrames                : 3 frames\n Codec ID                                 : V_MPEG4/ISO/AVC\n Duration                                 : 1h 28mn\n Bit rate mode                            : Variable\n Bit rate                                 : 1 885 Kbps\n Maximum bit rate                         : 40.0 Mbps\n Width                                    : 720 pixels\n Height                                   : 400 pixels\n Display aspect ratio                     : 16:9\n Frame rate                               : 23.976 fps\n Color space                              : YUV\n Chroma subsampling                       : 4:2:0\n Bit depth                                : 8 bits\n Scan type                                : Progressive\n Bits/(Pixel*Frame)                       : 0.273\n Stream size                              : 1.13 GiB (81%)\n Writing library                          : x264 core 138 r2358 9e941d1\n Default                                  : Yes\n Forced                                   : No\n\n Audio:\n\n ID                                       : 2\n Format                                   : AC-3\n Format/Info                              : Audio Coding 3\n Mode extension                           : CM (complete main)\n Format settings, Endianness              : Big\n Codec ID                                 : A_AC3\n Duration                                 : 1h 28mn\n Bit rate mode                            : Constant\n Bit rate                                 : 384 Kbps\n Channel(s)                               : 6 channels\n Channel positions                        : Front: L C R, Side: L R, LFE\n Sampling rate                            : 48.0 KHz\n Bit depth                                : 16 bits\n Compression mode                         : Lossy\n Stream size                              : 242 MiB (17%)\n Language                                 : English\n Default                                  : Yes\n Forced                                   : No\n\n Text:\n\n ID                                       : 3\n Format                                   : UTF-8\n Codec ID                                 : S_TEXT/UTF8\n Codec ID/Info                            : UTF-8 Plain Text\n Language                                 : English\n Default                                  : No\n Forced                                   : No\n\n\n &lt;a href=&quot;\nhttp://bayimg.com/OAPggaAeK&quot; rel=&quot;nofollow&quot; target=&quot;_NEW&quot;&gt;\nhttp://bayimg.com/OAPggaAeK&lt;/a&gt; &lt;a href=&quot;\nhttp://bayimg.com/OApgIaAEK&quot; rel=&quot;nofollow&quot; target=&quot;_NEW&quot;&gt;\nhttp://bayimg.com/OApgIaAEK&lt;/a&gt;","torrent":{"xt":"urn:btih:8260a7e9c64c941f477248dc85f3b830a167f2f5","amp;dn":"Paranormal.Asylum.2013.HDRip.x264.AC3.UNiQUE","amp;tr":["udp%3A%2F%2Ftracker.openbittorrent.com%3A80","udp%3A%2F%2Fopen.demonii.com%3A1337","udp%3A%2F%2Ftracker.coppersurfer.tk%3A6969","udp%3A%2F%2Fexodus.desync.com%3A6969"],"infoHash":"8260a7e9c64c941f477248dc85f3b830a167f2f5","infoHashBuffer":{"type":"Buffer","data":[130,96,167,233,198,76,148,31,71,114,72,220,133,243,184,48,161,103,242,245]},"announce":[],"urlList":[]}}